<svg width="227" height="244" viewBox="0 0 227 244" fill="none" xmlns="http://www.w3.org/2000/svg">
<line x1="134.858" y1="12.5134" x2="0.858167" y2="236.513" stroke="black" stroke-width="2"/>
<path d="M170.534 19H164.938V4.45455H170.477C171.973 4.45455 173.266 4.74574 174.355 5.32812C175.449 5.90578 176.292 6.73911 176.884 7.82812C177.48 8.91241 177.778 10.2121 177.778 11.7273C177.778 13.2424 177.482 14.5445 176.891 15.6335C176.299 16.7178 175.461 17.5511 174.376 18.1335C173.292 18.7112 172.011 19 170.534 19ZM168.886 15.6477H170.392C171.112 15.6477 171.725 15.5317 172.232 15.2997C172.743 15.0677 173.131 14.6676 173.396 14.0994C173.666 13.5312 173.801 12.7405 173.801 11.7273C173.801 10.714 173.664 9.9233 173.389 9.35511C173.119 8.78693 172.722 8.38684 172.196 8.15483C171.675 7.92282 171.036 7.80682 170.278 7.80682H168.886V15.6477ZM179.293 21.5V14.2273H181.736V15.5625H181.85C182.006 15.1364 182.257 14.7931 182.603 14.5327C182.953 14.2723 183.384 14.142 183.895 14.142C184.35 14.142 184.757 14.2557 185.117 14.483C185.481 14.7102 185.728 15.0227 185.855 15.4205H185.941C186.111 15.0369 186.395 14.7292 186.793 14.4972C187.195 14.2604 187.659 14.142 188.185 14.142C188.824 14.142 189.371 14.348 189.826 14.7599C190.285 15.1719 190.515 15.7898 190.515 16.6136V21.5H187.929V17.0966C187.929 16.7699 187.828 16.5521 187.624 16.4432C187.425 16.3295 187.233 16.2727 187.049 16.2727C186.779 16.2727 186.563 16.358 186.402 16.5284C186.246 16.6989 186.168 16.9261 186.168 17.2102V21.5H183.64V17.0114C183.64 16.7841 183.55 16.6042 183.37 16.4716C183.194 16.339 183 16.2727 182.787 16.2727C182.574 16.2727 182.368 16.3674 182.169 16.5568C181.975 16.7415 181.878 16.9972 181.878 17.3239V21.5H179.293Z" fill="black"/>
<path d="M41.5341 239H35.9375V224.455H41.4773C42.9735 224.455 44.2661 224.746 45.3551 225.328C46.4489 225.906 47.2917 226.739 47.8835 227.828C48.4801 228.912 48.7784 230.212 48.7784 231.727C48.7784 233.242 48.4825 234.545 47.8906 235.634C47.2988 236.718 46.4607 237.551 45.3764 238.134C44.2921 238.711 43.0114 239 41.5341 239ZM39.8864 235.648H41.392C42.1117 235.648 42.7249 235.532 43.2315 235.3C43.7429 235.068 44.1312 234.668 44.3963 234.099C44.6662 233.531 44.8011 232.741 44.8011 231.727C44.8011 230.714 44.6638 229.923 44.3892 229.355C44.1193 228.787 43.7216 228.387 43.196 228.155C42.6752 227.923 42.036 227.807 41.2784 227.807H39.8864V235.648ZM52.381 241.5V235.051H52.3384L50.3498 236.244V234.142L52.5799 232.778H54.8526V241.5H52.381Z" fill="black"/>
<path d="M209.534 211H203.938V196.455H209.477C210.973 196.455 212.266 196.746 213.355 197.328C214.449 197.906 215.292 198.739 215.884 199.828C216.48 200.912 216.778 202.212 216.778 203.727C216.778 205.242 216.482 206.545 215.891 207.634C215.299 208.718 214.461 209.551 213.376 210.134C212.292 210.711 211.011 211 209.534 211ZM207.886 207.648H209.392C210.112 207.648 210.725 207.532 211.232 207.3C211.743 207.068 212.131 206.668 212.396 206.099C212.666 205.531 212.801 204.741 212.801 203.727C212.801 202.714 212.664 201.923 212.389 201.355C212.119 200.787 211.722 200.387 211.196 200.155C210.675 199.923 210.036 199.807 209.278 199.807H207.886V207.648ZM218.463 213.5V211.625L222.015 208.983C222.232 208.822 222.429 208.673 222.604 208.536C222.779 208.393 222.919 208.247 223.023 208.095C223.127 207.939 223.179 207.761 223.179 207.562C223.179 207.278 223.056 207.065 222.81 206.923C222.564 206.781 222.27 206.71 221.929 206.71C221.56 206.71 221.264 206.793 221.042 206.959C220.819 207.12 220.708 207.378 220.708 207.733H218.208C218.208 206.753 218.558 205.998 219.259 205.467C219.964 204.932 220.864 204.665 221.958 204.665C222.715 204.665 223.369 204.795 223.918 205.055C224.472 205.311 224.898 205.657 225.196 206.092C225.499 206.523 225.651 207.004 225.651 207.534C225.651 207.97 225.559 208.375 225.374 208.749C225.194 209.123 224.915 209.478 224.536 209.814C224.162 210.15 223.681 210.479 223.094 210.801L222.213 211.284V211.369H225.651V213.5H218.463Z" fill="black"/>
<line x1="147.828" y1="149.561" x2="88.8276" y2="236.561" stroke="black" stroke-width="2"/>
<line x1="147.812" y1="148.417" x2="198.812" y2="219.417" stroke="black" stroke-width="2"/>
<line x1="168.818" y1="118.424" x2="218.818" y2="189.424" stroke="black" stroke-width="2"/>
<line x1="168.116" y1="119.533" x2="225.116" y2="11.5332" stroke="black" stroke-width="2"/>
</svg>
