<svg width="226" height="244" viewBox="0 0 226 244" fill="none" xmlns="http://www.w3.org/2000/svg">
<line x1="134.858" y1="12.5134" x2="0.858167" y2="236.513" stroke="black" stroke-width="2"/>
<path d="M170.534 19H164.938V4.45455H170.477C171.973 4.45455 173.266 4.74574 174.355 5.32812C175.449 5.90578 176.292 6.73911 176.884 7.82812C177.48 8.91241 177.778 10.2121 177.778 11.7273C177.778 13.2424 177.482 14.5445 176.891 15.6335C176.299 16.7178 175.461 17.5511 174.376 18.1335C173.292 18.7112 172.011 19 170.534 19ZM168.886 15.6477H170.392C171.112 15.6477 171.725 15.5317 172.232 15.2997C172.743 15.0677 173.131 14.6676 173.396 14.0994C173.666 13.5312 173.801 12.7405 173.801 11.7273C173.801 10.714 173.664 9.9233 173.389 9.35511C173.119 8.78693 172.722 8.38684 172.196 8.15483C171.675 7.92282 171.036 7.80682 170.278 7.80682H168.886V15.6477ZM179.293 21.5V14.2273H181.736V15.5625H181.85C182.006 15.1364 182.257 14.7931 182.603 14.5327C182.953 14.2723 183.384 14.142 183.895 14.142C184.35 14.142 184.757 14.2557 185.117 14.483C185.481 14.7102 185.728 15.0227 185.855 15.4205H185.941C186.111 15.0369 186.395 14.7292 186.793 14.4972C187.195 14.2604 187.659 14.142 188.185 14.142C188.824 14.142 189.371 14.348 189.826 14.7599C190.285 15.1719 190.515 15.7898 190.515 16.6136V21.5H187.929V17.0966C187.929 16.7699 187.828 16.5521 187.624 16.4432C187.425 16.3295 187.233 16.2727 187.049 16.2727C186.779 16.2727 186.563 16.358 186.402 16.5284C186.246 16.6989 186.168 16.9261 186.168 17.2102V21.5H183.64V17.0114C183.64 16.7841 183.55 16.6042 183.37 16.4716C183.194 16.339 183 16.2727 182.787 16.2727C182.574 16.2727 182.368 16.3674 182.169 16.5568C181.975 16.7415 181.878 16.9972 181.878 17.3239V21.5H179.293Z" fill="black"/>
<path d="M41.5341 239H35.9375V224.455H41.4773C42.9735 224.455 44.2661 224.746 45.3551 225.328C46.4489 225.906 47.2917 226.739 47.8835 227.828C48.4801 228.912 48.7784 230.212 48.7784 231.727C48.7784 233.242 48.4825 234.545 47.8906 235.634C47.2988 236.718 46.4607 237.551 45.3764 238.134C44.2921 238.711 43.0114 239 41.5341 239ZM39.8864 235.648H41.392C42.1117 235.648 42.7249 235.532 43.2315 235.3C43.7429 235.068 44.1312 234.668 44.3963 234.099C44.6662 233.531 44.8011 232.741 44.8011 231.727C44.8011 230.714 44.6638 229.923 44.3892 229.355C44.1193 228.787 43.7216 228.387 43.196 228.155C42.6752 227.923 42.036 227.807 41.2784 227.807H39.8864V235.648ZM52.381 241.5V235.051H52.3384L50.3498 236.244V234.142L52.5799 232.778H54.8526V241.5H52.381Z" fill="black"/>
<path d="M209.534 211H203.938V196.455H209.477C210.973 196.455 212.266 196.746 213.355 197.328C214.449 197.906 215.292 198.739 215.884 199.828C216.48 200.912 216.778 202.212 216.778 203.727C216.778 205.242 216.482 206.545 215.891 207.634C215.299 208.718 214.461 209.551 213.376 210.134C212.292 210.711 211.011 211 209.534 211ZM207.886 207.648H209.392C210.112 207.648 210.725 207.532 211.232 207.3C211.743 207.068 212.131 206.668 212.396 206.099C212.666 205.531 212.801 204.741 212.801 203.727C212.801 202.714 212.664 201.923 212.389 201.355C212.119 200.787 211.722 200.387 211.196 200.155C210.675 199.923 210.036 199.807 209.278 199.807H207.886V207.648ZM224.884 208.443L222.554 208.614C222.54 208.486 222.448 208.351 222.277 208.209C222.112 208.062 221.873 207.989 221.56 207.989C221.361 207.989 221.174 208.024 220.999 208.095C220.824 208.161 220.736 208.259 220.736 208.386C220.736 208.5 220.788 208.585 220.892 208.642C220.997 208.699 221.191 208.756 221.475 208.812L222.838 209.068C223.52 209.196 224.069 209.414 224.486 209.722C224.903 210.025 225.111 210.489 225.111 211.114C225.111 211.616 224.957 212.056 224.65 212.435C224.342 212.813 223.923 213.109 223.392 213.322C222.862 213.536 222.261 213.642 221.588 213.642C220.537 213.642 219.699 213.429 219.074 213.003C218.449 212.581 218.094 212.009 218.009 211.284L220.537 211.114C220.58 211.341 220.698 211.507 220.892 211.611C221.087 211.715 221.319 211.767 221.588 211.767C221.844 211.767 222.055 211.729 222.221 211.653C222.386 211.578 222.469 211.483 222.469 211.369C222.469 211.256 222.403 211.166 222.27 211.099C222.138 211.038 221.958 210.986 221.73 210.943L220.424 210.688C219.657 210.545 219.091 210.297 218.726 209.942C218.362 209.582 218.179 209.111 218.179 208.528C218.179 207.79 218.485 207.207 219.096 206.781C219.711 206.355 220.523 206.142 221.532 206.142C222.597 206.142 223.407 206.362 223.961 206.803C224.519 207.243 224.827 207.79 224.884 208.443Z" fill="black"/>
<line x1="147.828" y1="149.561" x2="88.8276" y2="236.561" stroke="black" stroke-width="2"/>
<line x1="147.812" y1="148.417" x2="198.812" y2="219.417" stroke="black" stroke-width="2"/>
<line x1="168.818" y1="118.424" x2="218.818" y2="189.424" stroke="black" stroke-width="2"/>
<line x1="168.116" y1="119.533" x2="225.116" y2="11.5332" stroke="black" stroke-width="2"/>
</svg>
