<svg width="177" height="277" viewBox="0 0 177 277" fill="none" xmlns="http://www.w3.org/2000/svg">
<line x1="47" y1="11.0093" x2="46" y2="118.009" stroke="black" stroke-width="2"/>
<line x1="109" y1="12.0093" x2="108" y2="119.009" stroke="black" stroke-width="2"/>
<line x1="176.087" y1="270.408" x2="108.087" y2="118.408" stroke="black" stroke-width="2"/>
<line x1="45.9589" y1="118.284" x2="0.958865" y2="270.284" stroke="black" stroke-width="2"/>
<line x1="82.9527" y1="176.304" x2="52.9527" y2="270.304" stroke="black" stroke-width="2"/>
<line x1="82.8944" y1="175.553" x2="129.894" y2="269.553" stroke="black" stroke-width="2"/>
<path d="M71.5341 19H65.9375V4.45455H71.4773C72.9735 4.45455 74.2661 4.74574 75.3551 5.32812C76.4489 5.90578 77.2917 6.73911 77.8835 7.82812C78.4801 8.91241 78.7784 10.2121 78.7784 11.7273C78.7784 13.2424 78.4825 14.5445 77.8906 15.6335C77.2988 16.7178 76.4607 17.5511 75.3764 18.1335C74.2921 18.7112 73.0114 19 71.5341 19ZM69.8864 15.6477H71.392C72.1117 15.6477 72.7249 15.5317 73.2315 15.2997C73.7429 15.0677 74.1312 14.6676 74.3963 14.0994C74.6662 13.5312 74.8011 12.7405 74.8011 11.7273C74.8011 10.714 74.6638 9.9233 74.3892 9.35511C74.1193 8.78693 73.7216 8.38684 73.196 8.15483C72.6752 7.92282 72.036 7.80682 71.2784 7.80682H69.8864V15.6477ZM80.293 21.5V14.2273H82.7362V15.5625H82.8498C83.006 15.1364 83.257 14.7931 83.6026 14.5327C83.953 14.2723 84.3839 14.142 84.8952 14.142C85.3498 14.142 85.757 14.2557 86.1168 14.483C86.4814 14.7102 86.7276 15.0227 86.8555 15.4205H86.9407C87.1112 15.0369 87.3952 14.7292 87.793 14.4972C88.1954 14.2604 88.6594 14.142 89.185 14.142C89.8242 14.142 90.3711 14.348 90.8256 14.7599C91.2849 15.1719 91.5146 15.7898 91.5146 16.6136V21.5H88.9293V17.0966C88.9293 16.7699 88.8275 16.5521 88.6239 16.4432C88.4251 16.3295 88.2333 16.2727 88.0487 16.2727C87.7788 16.2727 87.5633 16.358 87.4023 16.5284C87.2461 16.6989 87.168 16.9261 87.168 17.2102V21.5H84.6396V17.0114C84.6396 16.7841 84.5496 16.6042 84.3697 16.4716C84.1945 16.339 84.0004 16.2727 83.7873 16.2727C83.5742 16.2727 83.3683 16.3674 83.1694 16.5568C82.9753 16.7415 82.8782 16.9972 82.8782 17.3239V21.5H80.293Z" fill="black"/>
<path d="M19.5341 272H13.9375V257.455H19.4773C20.9735 257.455 22.2661 257.746 23.3551 258.328C24.4489 258.906 25.2917 259.739 25.8835 260.828C26.4801 261.912 26.7784 263.212 26.7784 264.727C26.7784 266.242 26.4825 267.545 25.8906 268.634C25.2988 269.718 24.4607 270.551 23.3764 271.134C22.2921 271.711 21.0114 272 19.5341 272ZM17.8864 268.648H19.392C20.1117 268.648 20.7249 268.532 21.2315 268.3C21.7429 268.068 22.1312 267.668 22.3963 267.099C22.6662 266.531 22.8011 265.741 22.8011 264.727C22.8011 263.714 22.6638 262.923 22.3892 262.355C22.1193 261.787 21.7216 261.387 21.196 261.155C20.6752 260.923 20.036 260.807 19.2784 260.807H17.8864V268.648ZM30.381 274.5V268.051H30.3384L28.3498 269.244V267.142L30.5799 265.778H32.8526V274.5H30.381Z" fill="black"/>
<path d="M149.534 272H143.938V257.455H149.477C150.973 257.455 152.266 257.746 153.355 258.328C154.449 258.906 155.292 259.739 155.884 260.828C156.48 261.912 156.778 263.212 156.778 264.727C156.778 266.242 156.482 267.545 155.891 268.634C155.299 269.718 154.461 270.551 153.376 271.134C152.292 271.711 151.011 272 149.534 272ZM147.886 268.648H149.392C150.112 268.648 150.725 268.532 151.232 268.3C151.743 268.068 152.131 267.668 152.396 267.099C152.666 266.531 152.801 265.741 152.801 264.727C152.801 263.714 152.664 262.923 152.389 262.355C152.119 261.787 151.722 261.387 151.196 261.155C150.675 260.923 150.036 260.807 149.278 260.807H147.886V268.648ZM164.884 269.443L162.554 269.614C162.54 269.486 162.448 269.351 162.277 269.209C162.112 269.062 161.873 268.989 161.56 268.989C161.361 268.989 161.174 269.024 160.999 269.095C160.824 269.161 160.736 269.259 160.736 269.386C160.736 269.5 160.788 269.585 160.892 269.642C160.997 269.699 161.191 269.756 161.475 269.812L162.838 270.068C163.52 270.196 164.069 270.414 164.486 270.722C164.903 271.025 165.111 271.489 165.111 272.114C165.111 272.616 164.957 273.056 164.65 273.435C164.342 273.813 163.923 274.109 163.392 274.322C162.862 274.536 162.261 274.642 161.588 274.642C160.537 274.642 159.699 274.429 159.074 274.003C158.449 273.581 158.094 273.009 158.009 272.284L160.537 272.114C160.58 272.341 160.698 272.507 160.892 272.611C161.087 272.715 161.319 272.767 161.588 272.767C161.844 272.767 162.055 272.729 162.221 272.653C162.386 272.578 162.469 272.483 162.469 272.369C162.469 272.256 162.403 272.166 162.27 272.099C162.138 272.038 161.958 271.986 161.73 271.943L160.424 271.688C159.657 271.545 159.091 271.297 158.726 270.942C158.362 270.582 158.179 270.111 158.179 269.528C158.179 268.79 158.485 268.207 159.096 267.781C159.711 267.355 160.523 267.142 161.532 267.142C162.597 267.142 163.407 267.362 163.961 267.803C164.519 268.243 164.827 268.79 164.884 269.443Z" fill="black"/>
</svg>
