<svg width="227" height="273" viewBox="0 0 227 273" fill="none" xmlns="http://www.w3.org/2000/svg">
<line x1="95" y1="11.0093" x2="94" y2="118.009" stroke="black" stroke-width="2"/>
<line x1="157" y1="12.0093" x2="156" y2="119.009" stroke="black" stroke-width="2"/>
<line x1="226.099" y1="263.435" x2="156.099" y2="118.435" stroke="black" stroke-width="2"/>
<line x1="93.84" y1="117.543" x2="0.840045" y2="261.543" stroke="black" stroke-width="2"/>
<line x1="96.8353" y1="184.55" x2="44.8353" y2="263.55" stroke="black" stroke-width="2"/>
<line x1="96.9992" y1="183.961" x2="99.9992" y2="260.961" stroke="black" stroke-width="2"/>
<line x1="144.918" y1="183.603" x2="179.918" y2="264.603" stroke="black" stroke-width="2"/>
<line x1="144.998" y1="184.065" x2="139.998" y2="261.065" stroke="black" stroke-width="2"/>
<path d="M119.534 19H113.938V4.45455H119.477C120.973 4.45455 122.266 4.74574 123.355 5.32812C124.449 5.90578 125.292 6.73911 125.884 7.82812C126.48 8.91241 126.778 10.2121 126.778 11.7273C126.778 13.2424 126.482 14.5445 125.891 15.6335C125.299 16.7178 124.461 17.5511 123.376 18.1335C122.292 18.7112 121.011 19 119.534 19ZM117.886 15.6477H119.392C120.112 15.6477 120.725 15.5317 121.232 15.2997C121.743 15.0677 122.131 14.6676 122.396 14.0994C122.666 13.5312 122.801 12.7405 122.801 11.7273C122.801 10.714 122.664 9.9233 122.389 9.35511C122.119 8.78693 121.722 8.38684 121.196 8.15483C120.675 7.92282 120.036 7.80682 119.278 7.80682H117.886V15.6477ZM128.293 21.5V14.2273H130.736V15.5625H130.85C131.006 15.1364 131.257 14.7931 131.603 14.5327C131.953 14.2723 132.384 14.142 132.895 14.142C133.35 14.142 133.757 14.2557 134.117 14.483C134.481 14.7102 134.728 15.0227 134.855 15.4205H134.941C135.111 15.0369 135.395 14.7292 135.793 14.4972C136.195 14.2604 136.659 14.142 137.185 14.142C137.824 14.142 138.371 14.348 138.826 14.7599C139.285 15.1719 139.515 15.7898 139.515 16.6136V21.5H136.929V17.0966C136.929 16.7699 136.828 16.5521 136.624 16.4432C136.425 16.3295 136.233 16.2727 136.049 16.2727C135.779 16.2727 135.563 16.358 135.402 16.5284C135.246 16.6989 135.168 16.9261 135.168 17.2102V21.5H132.64V17.0114C132.64 16.7841 132.55 16.6042 132.37 16.4716C132.194 16.339 132 16.2727 131.787 16.2727C131.574 16.2727 131.368 16.3674 131.169 16.5568C130.975 16.7415 130.878 16.9972 130.878 17.3239V21.5H128.293Z" fill="black"/>
<path d="M22.5341 265H16.9375V250.455H22.4773C23.9735 250.455 25.2661 250.746 26.3551 251.328C27.4489 251.906 28.2917 252.739 28.8835 253.828C29.4801 254.912 29.7784 256.212 29.7784 257.727C29.7784 259.242 29.4825 260.545 28.8906 261.634C28.2988 262.718 27.4607 263.551 26.3764 264.134C25.2921 264.711 24.0114 265 22.5341 265ZM20.8864 261.648H22.392C23.1117 261.648 23.7249 261.532 24.2315 261.3C24.7429 261.068 25.1312 260.668 25.3963 260.099C25.6662 259.531 25.8011 258.741 25.8011 257.727C25.8011 256.714 25.6638 255.923 25.3892 255.355C25.1193 254.787 24.7216 254.387 24.196 254.155C23.6752 253.923 23.036 253.807 22.2784 253.807H20.8864V261.648ZM33.381 267.5V261.051H33.3384L31.3498 262.244V260.142L33.5799 258.778H35.8526V267.5H33.381Z" fill="black"/>
<path d="M198.534 265H192.938V250.455H198.477C199.973 250.455 201.266 250.746 202.355 251.328C203.449 251.906 204.292 252.739 204.884 253.828C205.48 254.912 205.778 256.212 205.778 257.727C205.778 259.242 205.482 260.545 204.891 261.634C204.299 262.718 203.461 263.551 202.376 264.134C201.292 264.711 200.011 265 198.534 265ZM196.886 261.648H198.392C199.112 261.648 199.725 261.532 200.232 261.3C200.743 261.068 201.131 260.668 201.396 260.099C201.666 259.531 201.801 258.741 201.801 257.727C201.801 256.714 201.664 255.923 201.389 255.355C201.119 254.787 200.722 254.387 200.196 254.155C199.675 253.923 199.036 253.807 198.278 253.807H196.886V261.648ZM213.884 262.443L211.554 262.614C211.54 262.486 211.448 262.351 211.277 262.209C211.112 262.062 210.873 261.989 210.56 261.989C210.361 261.989 210.174 262.024 209.999 262.095C209.824 262.161 209.736 262.259 209.736 262.386C209.736 262.5 209.788 262.585 209.892 262.642C209.997 262.699 210.191 262.756 210.475 262.812L211.838 263.068C212.52 263.196 213.069 263.414 213.486 263.722C213.903 264.025 214.111 264.489 214.111 265.114C214.111 265.616 213.957 266.056 213.65 266.435C213.342 266.813 212.923 267.109 212.392 267.322C211.862 267.536 211.261 267.642 210.588 267.642C209.537 267.642 208.699 267.429 208.074 267.003C207.449 266.581 207.094 266.009 207.009 265.284L209.537 265.114C209.58 265.341 209.698 265.507 209.892 265.611C210.087 265.715 210.319 265.767 210.588 265.767C210.844 265.767 211.055 265.729 211.221 265.653C211.386 265.578 211.469 265.483 211.469 265.369C211.469 265.256 211.403 265.166 211.27 265.099C211.138 265.038 210.958 264.986 210.73 264.943L209.424 264.688C208.657 264.545 208.091 264.297 207.726 263.942C207.362 263.582 207.179 263.111 207.179 262.528C207.179 261.79 207.485 261.207 208.096 260.781C208.711 260.355 209.523 260.142 210.532 260.142C211.597 260.142 212.407 260.362 212.961 260.803C213.519 261.243 213.827 261.79 213.884 262.443Z" fill="black"/>
<path d="M115.534 268H109.938V253.455H115.477C116.973 253.455 118.266 253.746 119.355 254.328C120.449 254.906 121.292 255.739 121.884 256.828C122.48 257.912 122.778 259.212 122.778 260.727C122.778 262.242 122.482 263.545 121.891 264.634C121.299 265.718 120.461 266.551 119.376 267.134C118.292 267.711 117.011 268 115.534 268ZM113.886 264.648H115.392C116.112 264.648 116.725 264.532 117.232 264.3C117.743 264.068 118.131 263.668 118.396 263.099C118.666 262.531 118.801 261.741 118.801 260.727C118.801 259.714 118.664 258.923 118.389 258.355C118.119 257.787 117.722 257.387 117.196 257.155C116.675 256.923 116.036 256.807 115.278 256.807H113.886V264.648ZM124.463 270.5V268.625L128.015 265.983C128.232 265.822 128.429 265.673 128.604 265.536C128.779 265.393 128.919 265.247 129.023 265.095C129.127 264.939 129.179 264.761 129.179 264.562C129.179 264.278 129.056 264.065 128.81 263.923C128.564 263.781 128.27 263.71 127.929 263.71C127.56 263.71 127.264 263.793 127.042 263.959C126.819 264.12 126.708 264.378 126.708 264.733H124.208C124.208 263.753 124.558 262.998 125.259 262.467C125.964 261.932 126.864 261.665 127.958 261.665C128.715 261.665 129.369 261.795 129.918 262.055C130.472 262.311 130.898 262.657 131.196 263.092C131.499 263.523 131.651 264.004 131.651 264.534C131.651 264.97 131.559 265.375 131.374 265.749C131.194 266.123 130.915 266.478 130.536 266.814C130.162 267.15 129.681 267.479 129.094 267.801L128.213 268.284V268.369H131.651V270.5H124.463Z" fill="black"/>
</svg>
