<svg width="227" height="273" viewBox="0 0 227 273" fill="none" xmlns="http://www.w3.org/2000/svg">
<line x1="95" y1="11.0093" x2="94" y2="118.009" stroke="black" stroke-width="2"/>
<line x1="157" y1="12.0093" x2="156" y2="119.009" stroke="black" stroke-width="2"/>
<line x1="226.099" y1="263.435" x2="156.099" y2="118.435" stroke="black" stroke-width="2"/>
<line x1="93.84" y1="117.543" x2="0.840045" y2="261.543" stroke="black" stroke-width="2"/>
<line x1="96.8353" y1="184.55" x2="44.8353" y2="263.55" stroke="black" stroke-width="2"/>
<line x1="96.9992" y1="183.961" x2="99.9992" y2="260.961" stroke="black" stroke-width="2"/>
<line x1="144.918" y1="183.603" x2="179.918" y2="264.603" stroke="black" stroke-width="2"/>
<line x1="144.998" y1="184.065" x2="139.998" y2="261.065" stroke="black" stroke-width="2"/>
<path d="M119.534 19H113.938V4.45455H119.477C120.973 4.45455 122.266 4.74574 123.355 5.32812C124.449 5.90578 125.292 6.73911 125.884 7.82812C126.48 8.91241 126.778 10.2121 126.778 11.7273C126.778 13.2424 126.482 14.5445 125.891 15.6335C125.299 16.7178 124.461 17.5511 123.376 18.1335C122.292 18.7112 121.011 19 119.534 19ZM117.886 15.6477H119.392C120.112 15.6477 120.725 15.5317 121.232 15.2997C121.743 15.0677 122.131 14.6676 122.396 14.0994C122.666 13.5312 122.801 12.7405 122.801 11.7273C122.801 10.714 122.664 9.9233 122.389 9.35511C122.119 8.78693 121.722 8.38684 121.196 8.15483C120.675 7.92282 120.036 7.80682 119.278 7.80682H117.886V15.6477ZM128.293 21.5V14.2273H130.736V15.5625H130.85C131.006 15.1364 131.257 14.7931 131.603 14.5327C131.953 14.2723 132.384 14.142 132.895 14.142C133.35 14.142 133.757 14.2557 134.117 14.483C134.481 14.7102 134.728 15.0227 134.855 15.4205H134.941C135.111 15.0369 135.395 14.7292 135.793 14.4972C136.195 14.2604 136.659 14.142 137.185 14.142C137.824 14.142 138.371 14.348 138.826 14.7599C139.285 15.1719 139.515 15.7898 139.515 16.6136V21.5H136.929V17.0966C136.929 16.7699 136.828 16.5521 136.624 16.4432C136.425 16.3295 136.233 16.2727 136.049 16.2727C135.779 16.2727 135.563 16.358 135.402 16.5284C135.246 16.6989 135.168 16.9261 135.168 17.2102V21.5H132.64V17.0114C132.64 16.7841 132.55 16.6042 132.37 16.4716C132.194 16.339 132 16.2727 131.787 16.2727C131.574 16.2727 131.368 16.3674 131.169 16.5568C130.975 16.7415 130.878 16.9972 130.878 17.3239V21.5H128.293Z" fill="black"/>
<path d="M22.5341 265H16.9375V250.455H22.4773C23.9735 250.455 25.2661 250.746 26.3551 251.328C27.4489 251.906 28.2917 252.739 28.8835 253.828C29.4801 254.912 29.7784 256.212 29.7784 257.727C29.7784 259.242 29.4825 260.545 28.8906 261.634C28.2988 262.718 27.4607 263.551 26.3764 264.134C25.2921 264.711 24.0114 265 22.5341 265ZM20.8864 261.648H22.392C23.1117 261.648 23.7249 261.532 24.2315 261.3C24.7429 261.068 25.1312 260.668 25.3963 260.099C25.6662 259.531 25.8011 258.741 25.8011 257.727C25.8011 256.714 25.6638 255.923 25.3892 255.355C25.1193 254.787 24.7216 254.387 24.196 254.155C23.6752 253.923 23.036 253.807 22.2784 253.807H20.8864V261.648ZM33.381 267.5V261.051H33.3384L31.3498 262.244V260.142L33.5799 258.778H35.8526V267.5H33.381Z" fill="black"/>
<path d="M198.534 265H192.938V250.455H198.477C199.973 250.455 201.266 250.746 202.355 251.328C203.449 251.906 204.292 252.739 204.884 253.828C205.48 254.912 205.778 256.212 205.778 257.727C205.778 259.242 205.482 260.545 204.891 261.634C204.299 262.718 203.461 263.551 202.376 264.134C201.292 264.711 200.011 265 198.534 265ZM196.886 261.648H198.392C199.112 261.648 199.725 261.532 200.232 261.3C200.743 261.068 201.131 260.668 201.396 260.099C201.666 259.531 201.801 258.741 201.801 257.727C201.801 256.714 201.664 255.923 201.389 255.355C201.119 254.787 200.722 254.387 200.196 254.155C199.675 253.923 199.036 253.807 198.278 253.807H196.886V261.648ZM211.128 267.614C210.371 267.614 209.698 267.5 209.111 267.273C208.524 267.05 208.06 266.735 207.719 266.328C207.378 265.926 207.198 265.455 207.179 264.915H209.85C209.878 265.099 210.013 265.234 210.255 265.32C210.496 265.41 210.787 265.455 211.128 265.455C211.469 265.455 211.767 265.4 212.023 265.291C212.279 265.187 212.407 265.014 212.407 264.773C212.407 264.56 212.283 264.384 212.037 264.247C211.791 264.105 211.441 264.034 210.986 264.034H209.793V262.102H210.986C211.37 262.102 211.668 262.034 211.881 261.896C212.099 261.759 212.208 261.591 212.208 261.392C212.208 261.179 212.111 261.013 211.917 260.895C211.722 260.772 211.469 260.71 211.157 260.71C210.801 260.71 210.503 260.767 210.262 260.881C210.02 260.994 209.892 261.136 209.878 261.307H207.378C207.388 260.786 207.56 260.327 207.897 259.929C208.238 259.531 208.692 259.221 209.26 258.999C209.833 258.776 210.475 258.665 211.185 258.665C211.905 258.665 212.53 258.781 213.06 259.013C213.595 259.245 214.007 259.555 214.296 259.943C214.589 260.331 214.736 260.758 214.736 261.222C214.736 261.733 214.559 262.135 214.203 262.429C213.848 262.723 213.429 262.898 212.946 262.955V263.04C213.628 263.082 214.163 263.269 214.551 263.601C214.94 263.928 215.134 264.375 215.134 264.943C215.134 265.473 214.959 265.938 214.608 266.335C214.263 266.738 213.787 267.05 213.181 267.273C212.579 267.5 211.895 267.614 211.128 267.614Z" fill="black"/>
<path d="M115.534 268H109.938V253.455H115.477C116.973 253.455 118.266 253.746 119.355 254.328C120.449 254.906 121.292 255.739 121.884 256.828C122.48 257.912 122.778 259.212 122.778 260.727C122.778 262.242 122.482 263.545 121.891 264.634C121.299 265.718 120.461 266.551 119.376 267.134C118.292 267.711 117.011 268 115.534 268ZM113.886 264.648H115.392C116.112 264.648 116.725 264.532 117.232 264.3C117.743 264.068 118.131 263.668 118.396 263.099C118.666 262.531 118.801 261.741 118.801 260.727C118.801 259.714 118.664 258.923 118.389 258.355C118.119 257.787 117.722 257.387 117.196 257.155C116.675 256.923 116.036 256.807 115.278 256.807H113.886V264.648ZM124.463 270.5V268.625L128.015 265.983C128.232 265.822 128.429 265.673 128.604 265.536C128.779 265.393 128.919 265.247 129.023 265.095C129.127 264.939 129.179 264.761 129.179 264.562C129.179 264.278 129.056 264.065 128.81 263.923C128.564 263.781 128.27 263.71 127.929 263.71C127.56 263.71 127.264 263.793 127.042 263.959C126.819 264.12 126.708 264.378 126.708 264.733H124.208C124.208 263.753 124.558 262.998 125.259 262.467C125.964 261.932 126.864 261.665 127.958 261.665C128.715 261.665 129.369 261.795 129.918 262.055C130.472 262.311 130.898 262.657 131.196 263.092C131.499 263.523 131.651 264.004 131.651 264.534C131.651 264.97 131.559 265.375 131.374 265.749C131.194 266.123 130.915 266.478 130.536 266.814C130.162 267.15 129.681 267.479 129.094 267.801L128.213 268.284V268.369H131.651V270.5H124.463Z" fill="black"/>
</svg>
